<?xml version="1.0" encoding="UTF-8" standalone="no"?>
<svg width="15px" height="12px" viewBox="0 0 15 12" version="1.1" xmlns="http://www.w3.org/2000/svg" xmlns:xlink="http://www.w3.org/1999/xlink" xmlns:sketch="http://www.bohemiancoding.com/sketch/ns">
    <!-- Generator: Sketch 3.3.3 (12072) - http://www.bohemiancoding.com/sketch -->
    <title>Shape</title>
    <desc>Created with Sketch.</desc>
    <defs></defs>
    <g id="Page-1" stroke="none" stroke-width="1" fill="none" fill-rule="evenodd" sketch:type="MSPage">
        <g id="Landingpage" sketch:type="MSArtboardGroup" transform="translate(-850.000000, -486.000000)" fill="#EDEDED">
            <g id="list" sketch:type="MSLayerGroup" transform="translate(827.000000, 370.000000)">
                <g id="Group" transform="translate(23.000000, 28.000000)" sketch:type="MSShapeGroup">
                    <path d="M12.8013503,88.0962952 C12.6792027,87.9679016 12.4670525,87.9679016 12.3449049,88.0962952 L5.60109299,94.830547 C5.47251662,94.9589405 5.27322404,94.9589405 5.14464818,94.830547 L2.63098657,92.3204495 C2.5088395,92.1984756 2.30311762,92.1984756 2.18097055,92.3204495 L0.0916102984,94.4068477 C-0.0305367661,94.5352412 -0.0305367661,94.7342518 0.0916102984,94.8626454 L2.6052714,97.3727429 L3.05528741,97.8221214 L5.14464818,99.9085196 C5.26679525,100.030493 5.47251662,100.030493 5.60109299,99.9085196 L14.9035681,90.6128129 C15.032144,90.4908385 15.032144,90.2854087 14.9035681,90.1634343 L12.8013503,88.0962952 Z" id="Shape"></path>
                </g>
            </g>
        </g>
    </g>
</svg>