<svg width="260" height="56" viewBox="0 0 260 56" xmlns="http://www.w3.org/2000/svg"><title>LOGO</title><g fill="none" fill-rule="evenodd"><path d="M86.98404118 1.22680688c.33950037 0 1.84713947.15438992 2.29068893.68787588.4574942.48355127.4837747 2.4442523.5357992 2.4320234.0525609-.01273845.1437379 0 .1957625.09935984.0525609.09935985.0134084 1.15410287.0134084 1.25346272 0 .0988503-.2349149.07388296-.2349149.2231775 0 .148785-.2923028.74952995-.2923028.74952995 0 .16814743.087959.608388.48592 1.216776 1.3687282 1.2585581 2.6709508 1.30034018 2.6709508 1.30034018 1.3032953.18903848 1.899164.608388 2.6494974 1.97191085.7508697 1.3635229 1.325285 5.8729314 1.325285 5.8729314.7503334 1.6575261.5733427 2.7897189.5733427 3.5657448s-.904798 2.076366-1.5671724 3.9647127c-.6623743 1.8873276-1.4572235 2.6215714-1.8546482 3.2299594-.3974246.6078785-.3974246 1.1953755-.3974246 1.1953755l-.2649497 11.7463723s-.24296 4.1532417-.2204339 4.2576969c.0219898.1054743-.3539814 6.2510084-.3539814 6.2510084.0005363 0-.001609.0896786.1528556.3204992s-.1083398.7699115-.1083398.7699115-1.8374854 1.1642936-2.4220911 1.3365173c-1.1263045.3327281-2.0241302.0601255-2.2005845.0601255-.1764544 0-.8323927-.3745102-.3024932-.9925794.8924623-.8336037 1.1059238-.9910509 1.1059238-.9910509s-2.6500337.0417821-3.3558512.0208911c-.7063538-.0208911-.6849004-.3775674-.7068902-.5869874-.0219897-.2099296.3089293-.4198591.3089293-.4198591s2.0756184-.4407501 2.9364369-1.4679781c.6183949-.5248238.3534451-1.4893786.3534451-2.1191672 0-.6287695-3.4218205-16.1085245-3.4218205-16.1085245s0-.1049648-.4639302-.2308206c-.330919-1.447087-.2617317-4.7096569-.4194143-5.0342324-.1582189-.3240659-2.0064311-2.0121643-1.3193853-5.1972844.1040491-1.2529532.4161964-8.3706852.4161964-8.3706852.1362292-.4275021 3.1472167-2.873283 3.1472167-2.873283-.0547062-.16559973-.0171627-.37807695.1238935-.5436767.1979078-.23285872-.0257441-.6099166-.4510581-.99818433-.3620264-.33018043-1.00884702-2.3183965-1.1043148-2.52577833-.0954677-.2068723-.2316969-.8937291-.1909354-2.39635575.28640316-1.5153651 2.24295507-1.662112 2.24295507-1.662112l.1244298-.0076431zm16.53341528 26.02667562s-.03386576.9609881.18964823 1.1479884c.2235139.1875099.3829435 1.0618766.3829435 1.4995694 0 .4371834.6387602 7.9008915.6387602 9.4931967 1.1816543.4061016 1.660464.2191012 1.7563302.655775.0958661.4376929 1.6286823 5.5906476 2.0116259 6.6836059.3834645 1.0929584 1.0540065 2.1859167.9263587 2.8416917-.1276479.6562845-.7664081 1.1556315-1.11757 1.3431414-.3511619.1870003-.7028447 1.0929583-1.1816544 1.467978-.4788097.3740007-.894056.4366738-.894056.6868568 0 .2496735.223514.5620201 1.0857882.4687747.8617532-.0937549 1.7240275-.4061015 1.7240275-.4061015s-.3193802.655775-.0635635.7184481c.2552957.0621636.9581404.3434284 1.5963796.093755.6387602-.2501831.9263586-.594121 1.3093022-.999713.3834645-.405592.7903746-.7342438.7903746-.7342438s.3751284-.5304287.0083362-1.1714272c-.0567903-.0978312-.6069785-.5304287-.894577-1.1551219-.2870774-.6241837-.5428941-1.2799587-.4152462-1.9678346.1281688-.6863472.7028447-3.4347935.7351474-4.1216503.0317817-.6868568.1276478-3.9351596.1276478-4.0915877 0-.1559185 1.4687318-.4682651 1.6922458-.8116935.223514-.3434284-.0640844-4.2159148-.0958661-5.339955-.0317817-1.1245497.0958661-3.1545478.2870774-3.2483028.1922533-.0937549.447549-.3434284.7028447-.1559185.2552957.1875099 1.660464.2496735 1.8521963.1248367.1912113-.1248367.5746758-.6873663.5746758-.6873663s1.8839781-.1248367 1.9157598-.405592c.0323027-.2812648-.9258377-2.9043648-1.0857882-4.0289145-.1594296-1.1240401 0-2.466672-.0953452-2.7790186-.0958661-.3128561-1.0540065-3.8103228-1.1816543-5.1534642-.1276479-1.3426318-.6747101-5.3323119-.760156-5.6670781-.089093-.3490334-.2349762-.9528355-1.0597377-1.26569165-1.5916905-.60380217-1.8527173-.56202007-1.8527173-.74952994 0 0-.0229245-.2619023.1693288-.3245755.1927743-.0626731.3673132-.0356676.4861038.108022.1187907.1431801.2474805.2063628.2474805.0178338 0-.1885289-.1927743-.6099166-.2198669-.8071077-.0276136-.197191.0640845-.0805069.1833961-.3765483.1193117-.2960414-.0640844-.4305593 0-.7352629.0640845-.3047035-.1833961-3.2370929-.9445941-4.0706966-.761198-.8341132-1.8521963-1.7935726-2.8785892-1.8832513-1.027435-.0891691-2.9249593.7627779-3.4840048 2.2868052 0 0-.357935.654756-.5960373.851947-.2381023.1966816-.0182354 1.6585452-.0276136 1.7212183-.0093782.0626732.1979844.8932196.2068416 1.0725769.0093782.1793573-.355851 1.1663318-.6653319 1.2050567-.2282031.0285341-.0849249.1350275.0984712.216044.1839171.080507-.0343868.1533709.0479331.2338778.0828408.080507.1198327.357186.3673132.2945128.2474805-.0631827.2568587-.108022.403263-.0810165.1469253.0270055.1391101.4341261.1391101.4341261s-.48923-.0203815-.713786.1798668c-.224035.1992293-.6319871.8172985-1.24313376.9767838-.61218867.1594853-1.7740446.7576826-1.79436406 1.3956238 0 0-.3058338 3.4694421-.4282716 4.2276342-.1224377.7576825-1.163419 7.083593-.8372657 8.0002513 0 0 .2422704.3505619.3501198.4213876.1073284.0698067.3042708.8330941.5288268 1.0521954.2245561.2191012.0807568 1.1306641.3855486 1.2361384.3047919.1054743.4663055.0968121.537684.0789783m25.690945-20.3625413s-.4156844.3223307-.5163343.5716615c-.1011532.2493308-1.4503661 1.3047452-2.9133135 1.7005899 0 0-1.750303.9376893-2.0089735 1.9781953-.25816713 1.0405061-1.0044867 6.2008813-1.0044867 8.0916823 0 1.8913151.07196476 2.7698847.07196476 2.8577931 0 .0884224.3593204.5721755.6169844.777295-.0714615.9819004-.10065 2.6824903.02868525 3.0197295.1293352.3372391 1.83585554 1.5977731 2.18108495 1.6121674 0 .9232949.12883193 7.2115705.17211142 7.5488096.0432795.336725.4916751 7.3930422.5203603 7.8037953.06894525.984985 1.1126855 6.4538107 1.05783125 6.2975291-.1434262-.4107531.8328785 3.0922153.87565475 3.3122433.0432795.220028.144936 1.5684703.3457327 1.9057094.25867046.3074223 1.2631572.4688446 1.8514563.4688446.58779585 0 1.73621205-.2786335 1.73621205-.2786335s.5163344-.4544502-.01459426-1.0703229c-.53092867-.6153586-.87515158-.9819005-1.06185728-1.2019284-.18720897-.2205421-.4015934-2.3159485-.4448729-2.7405819-.0432795-.4256615-.2727614-1.2898368-.4740614-2.4038568-.2007967-1.113506.0538477-4.8868826.1544977-5.4138187.10064996-.5279643.57773084-5.6677762.76443654-5.9901069.1862024-.3223307.3729081 1.1145341.55961382 2.30104.1298384.8065978 1.1831404 3.5045107 1.1398609 6.9488736 0 0 .4312852 2.2264978.7558813 3.1364265-.0855524.4837531-.0855524 2.6233707-.2294819 3.1657294-.1434262.5423586-.2782972 1.6666603.0085553 1.72578.1112182.0221056.5701821-.0030845 1.1760949.0257042.3829732.0174789.4081356-.0442112.3910252-.2123167.5208636.1331478 1.2576214.202035 2.2223514.213859.7382675.0087394 2.1876272.0642605 2.4754861-.0457535.2012999-.0765985.106689-.4909503-.2355209-.6780768-.4010902-.220028-.7865796-.2375068-1.1589845-.3840208-.3724049-.147028-1.3205277-.8502949-1.4206744-1.2019284-.1001467-.3521476-.6099388-5.4621426-.5243863-6.4589515 0 0 .1882154-1.4635972.1751309-2.0429699-.0291885-1.3350761-.0266722-2.6208003.0739777-2.7945607.3593204.0642606.3125182.0642606 1.7815046.3763095 0 0 2.2379522.3377532 2.7401955-.4251474.5022434-.7623866.7458163-3.1076379.8036901-4.5002915.0573705-1.3926535.1006499-1.6702589.1006499-1.6702589s-.660767-1.0847173-2.2102734-1.7735898c-1.5500096-.6888726-1.9913597-.5644643-2.3355826-.6965839-.3447262-.1321196-.3698887-.361401-.2123715-.5618938.1917382-.2452181.4388339-.1778731.6824068-.1634787.2440762.0149084.4735582-.9968089.4020967-1.964315-.0719647-.9675061.3155377-.9813864.3296287-1.0698088.0150975-.0879084-.2299852-4.00163-.5022434-5.0570445-.2727614-1.0554144-1.4921359-10.9792922-1.4921359-10.9792922s-.2581672-1.2605339-1.5500096-1.7735898c-1.2913392-.5130558-2.2238612-.9675061-2.3672874-1.0698088-.1439295-.1028168-.4161876-.4251474-.4161876-.6451754 0-.2200279.008052-.5361896.1514782-.624098.1434262-.0879083.5656528-1.3839141.5656528-1.3839141s.187209-.2925138.187209-.3660278c0-.073514.0860557-1.3782592.0860557-1.5247732 0-.1465139.1862025-.8939921.1862025-1.11402 0-.2195139-.2722582-1.67077303-2.181085-1.97870936-.7216603-.116183-1.4881098-.06323233-1.6003346.25241525-.0634094.17890127-.2677289.1974083-.3739146.2683519-.4373241.2925138-.60088034.72434435-.6084291.79837244-.0145942.14651393-.27326467 1.1284144-.0432795 1.4656535.1580205.4986615.08605575.41075312.08605575.41075312s-.17211147.1172111-.17211147.2200279c0 .1023027-.0432795.9819005-.0432795.9819005s.2289787.3665419.30144666.3079363c.072468-.05911966.1575172.4251475.2007967.483239.04277624.0591196.2440762.8945062.17211145 1.1880481" fill="#595A59"/><path d="M10.9851189 18.6886396l-2.99099772.7110799V44.943899c0 2.0238429-.2175271 3.4460028-.7069631 4.4852735-.76134487 1.6956522-2.7734706 2.8443198-4.8943599 2.8443198-.59819955 0-.9244902 0-2.39279818-.1640954l1.03325376 3.227209c.54381777.0546984.97887198.0546984 1.1963991.0546984 2.71908882 0 4.78559634-.8204768 6.41704964-2.4614305 1.7402169-1.7503507 2.3384164-3.7741936 2.3384164-7.9859748V18.6886396zm.5981995-8.0406733L9.29928382 7.91304348 6.90648564 10.6479663l2.39279818 2.9537167 2.28403458-2.9537167zm17.5060188 7.6577841c-7.3415398 0-13.377917 6.1809256-13.377917 13.6746143 0 7.6030855 6.1451407 14.0575035 13.377917 14.0575035 7.5046852 0 13.4322989-6.2356242 13.4322989-14.1669005 0-7.657784-5.8188501-13.5652173-13.4322989-13.5652173zm.0543818 3.117812c5.6557048 0 10.1150105 4.7040673 10.1150105 10.6661992 0 5.8527349-4.5680693 10.8302945-9.9518652 10.8302945-5.6557047 0-10.3325375-4.9228611-10.3325375-10.8302945 0-5.9621319 4.4593056-10.6661992 10.1693922-10.6661992zM50.7662612 8.1318373l-2.9909977.71107995V29.1360449c0 1.7503506 0 3.0631136.0543817 3.7194951.0543818 2.2973352.7613449 4.8681627 1.8489804 6.7826087 2.2296529 3.9382889 6.580195 6.3997195 11.3657914 6.3997195 7.5046852 0 13.5954442-6.2903226 13.5954442-14.0028051 0-7.5483871-5.9819955-13.7293127-13.3235353-13.7293127-4.1873968 0-7.3415399 1.6956521-10.5500647 5.633941V8.1318373zm10.4956829 13.2917251c5.4925594 0 10.1150105 4.8681627 10.1150105 10.5568023 0 5.9621318-4.6768328 10.9396914-10.2781558 10.9396914-5.7644684 0-10.4413012-4.8134642-10.4413012-10.7755961 0-5.9621318 4.7312146-10.7208976 10.6044465-10.7208976zM153.687089 8.1318373l-2.990998.71107995V45.7096774l2.990998-.7657784V8.1318373zm28.945829 16.4095372c-2.284034-4.1023843-5.981995-6.2356241-10.767591-6.2356241-7.559067 0-13.323536 6.0168302-13.323536 13.9481065 0 7.4389902 6.090759 13.7840113 13.214772 13.7840113 3.643579 0 6.797722-1.1486676 10.169392-3.6647967v-3.9929873c-3.861106 3.2819074-6.580195 4.5399719-10.006247 4.5399719-3.969869 0-7.66783-2.4067321-9.136138-6.0168303l19.849348-12.3618513zm-20.773838 9.4081346c-.108764-.9298738-.217527-1.6956522-.217527-2.0785414 0-5.743338 4.676832-10.4474053 10.278155-10.4474053 2.610326 0 4.676833.7657784 6.308287 2.3520337l-16.368915 10.173913zm41.663134 11.7054699l2.990997-.6563815V28.7531557c0-2.5708275-.054381-3.6647967-.163145-4.3758766-.271909-1.4768583-.870108-2.6802244-1.903362-3.6647966-1.52269-1.4221599-3.915488-2.2426368-6.797722-2.2426368-2.555944 0-4.56807.3828892-7.232777 1.4221599l-1.25078 3.5553997c.435054-.1640953.706963-.2734923.870108-.2734923 3.099761-1.203366 2.229653-.8751753 2.719089-1.0392706 1.631453-.4375877 3.480434-.71108 4.676833-.71108 2.120889 0 3.969869.6563815 4.89436 1.7503506.870108.9298738 1.142017 1.914446 1.142017 3.9929874 0 .0546985 0 .5469846-.054382 1.0392707v2.1332398c-1.631453-2.1332398-4.133015-3.2819074-7.178394-3.2819074-5.383796 0-9.516811 4.1570828-9.516811 9.57223 0 5.4151473 4.024251 9.4628331 9.408047 9.4628331 3.208525 0 5.383796-1.0939691 7.395922-3.7194951v3.2819075zm-6.906486-15.7531557c3.96987 0 7.015249 2.8990182 7.015249 6.6732118 0 3.7741935-3.045379 6.5638148-7.124013 6.5638148-3.915488 0-6.688958-2.7349228-6.688958-6.5638148 0-3.8835905 2.882234-6.6732118 6.797722-6.6732118zm39.710275-21.769986l-2.990997.43758766V23.6661992c-2.990998-3.828892-5.927614-5.3604488-10.006247-5.3604488-7.504686 0-13.377917 6.1809256-13.377917 14.1122019 0 7.3842917 5.927613 13.6199159 12.997244 13.6199159 2.44718 0 5.111887-.8204769 7.069631-2.1879383 1.087636-.7657784 1.848981-1.5315568 3.317289-3.3913044v5.2510519l2.990997-.7657784V8.1318373zm-12.834099 13.2917251c5.81885 0 10.11501 4.4852735 10.11501 10.6115007 0 6.2356241-4.350542 10.9396915-10.11501 10.9396915-5.81885 0-10.278156-4.6493689-10.278156-10.6661992 0-6.1809257 4.459306-10.884993 10.278156-10.884993zm36.127424-.2187938c-2.44718-2.1332398-5.003124-3.1178121-8.26603-3.1178121-5.003124 0-8.918612 3.3366059-8.918612 7.7124825 0 3.6100982 2.44718 6.1809257 6.74334 7.1107994l2.664707.6016831c1.794599.3828892 2.882235.8751753 3.480434 1.4221598.870109.8204769 1.413926 2.0785414 1.413926 3.2819075 0 2.7349228-2.44718 4.7040673-5.81885 4.7040673-2.882234 0-5.057505-1.0392707-6.852104-3.2819074l-2.338416 2.2426367c2.120889 2.6802244 5.275032 4.1570828 8.972993 4.1570828 5.383796 0 9.299284-3.3913044 9.299284-8.0406732 0-3.8835905-2.773471-6.7279103-7.450303-7.7124825l-2.12089-.3828892c-3.317288-.71108-4.731214-1.9691445-4.731214-4.3211781 0-2.5161291 2.338416-4.3758766 5.492559-4.3758766 2.44718 0 4.024252.5469846 6.580195 2.3520336l1.848981-2.3520336z" fill="#7A9943"/></g></svg>